<svg xmlns="http://www.w3.org/2000/svg" viewBox="0 0 512 512"><circle cx="256" cy="256" r="256" fill="#45b39c"/><path d="M398.6 115.1c-3-3.5-7.6-5.8-12.6-5.8H243.4c-9.2 0-16.6 7.5-16.6 16.7v70.8l-3.1 3.1c-1.9-1.2-3.7-2.3-5.7-3.3L200.2 179l-.1-.1c-.6-.5-1.4-.9-2.3-.9h-21.1c-1.9 0-3.4 1.5-3.4 3.4v9.3c-8.1 1.7-15.7 4.9-22.4 9.3l-6.6-6.6a3.32 3.32 0 0 0-4.7 0l-14.9 14.9c-1.3 1.3-1.3 3.5 0 4.7l6.6 6.6c-4.4 6.7-7.6 14.3-9.3 22.4h-9.3c-1.9 0-3.4 1.5-3.4 3.4v21.1c0 1.1.5 2.1 1.3 2.7l17.3 17.3c.9 1.8 1.9 3.5 2.9 5.1l-1 2-5.2 5.2c-1.3 1.3-1.3 3.5 0 4.7l199.2 199.2C432.3 473.1 512 373.9 512 256c0-9.8-.6-19.5-1.7-29.1L398.8 115.4l-.2-.3z" opacity=".1"/><path fill="#fff" d="M187.3 210.5c-25.1 0-45.5 20.4-45.5 45.5s20.4 45.5 45.5 45.5 45.5-20.4 45.5-45.5-20.4-45.5-45.5-45.5zm0 72.9c-15.2 0-27.4-12.3-27.4-27.4 0-15.2 12.3-27.4 27.4-27.4 15.2 0 27.4 12.3 27.4 27.4 0 15.2-12.3 27.4-27.4 27.4z"/><circle cx="187.3" cy="256" r="27.4" fill="#d15241"/><path fill="#e56353" d="M261.9 242.1h-9.3c-1.7-8.1-4.9-15.7-9.3-22.4l6.6-6.6c1.3-1.3 1.3-3.4 0-4.7L235 193.5a3.32 3.32 0 0 0-4.7 0l-6.6 6.6c-6.7-4.4-14.3-7.6-22.4-9.3v-9.3c0-1.9-1.5-3.3-3.3-3.3h-21.1c-1.9 0-3.3 1.5-3.3 3.3v9.3c-8.1 1.7-15.7 4.9-22.4 9.3l-6.6-6.6a3.32 3.32 0 0 0-4.7 0L125 208.4a3.32 3.32 0 0 0 0 4.7l6.6 6.6c-4.4 6.7-7.6 14.3-9.3 22.4H113c-1.8 0-3.3 1.5-3.3 3.3v21.1c0 1.9 1.5 3.3 3.3 3.3h9.3c1.7 8.1 4.9 15.7 9.3 22.4l-6.6 6.6a3.32 3.32 0 0 0 0 4.7l14.9 14.9c1.3 1.3 3.4 1.3 4.7 0l6.6-6.6c6.7 4.4 14.3 7.6 22.4 9.3v9.3c0 1.9 1.5 3.3 3.3 3.3H198c1.8 0 3.3-1.5 3.3-3.3v-9.3c8.1-1.7 15.7-4.9 22.4-9.3l6.6 6.6c1.3 1.3 3.4 1.3 4.7 0l14.9-14.9c1.3-1.3 1.3-3.4 0-4.7l-6.6-6.6c4.4-6.7 7.6-14.3 9.3-22.4h9.3c1.9 0 3.3-1.5 3.3-3.3v-21.1c0-1.8-1.5-3.3-3.3-3.3zm-74.6 64.5c-28 0-50.6-22.7-50.6-50.6 0-28 22.7-50.6 50.6-50.6 28 0 50.6 22.7 50.6 50.6 0 28-22.6 50.6-50.6 50.6z"/><path fill="#d15241" d="M187.3 205.4c-28 0-50.6 22.7-50.6 50.6 0 28 22.7 50.6 50.6 50.6 28 0 50.6-22.7 50.6-50.6 0-28-22.6-50.6-50.6-50.6zm0 96.1c-25.1 0-45.5-20.4-45.5-45.5s20.4-45.5 45.5-45.5 45.5 20.4 45.5 45.5-20.4 45.5-45.5 45.5z"/><path fill="#d5d6db" d="M243.4 119.6H386c9.2 0 16.7 7.5 16.7 16.7V386c0 9.2-7.5 16.7-16.7 16.7H243.4c-9.2 0-16.7-7.5-16.7-16.7V136.3c0-9.2 7.5-16.7 16.7-16.7z"/><path fill="#ebf0f3" d="M243.4 109.3H386c9.2 0 16.7 7.5 16.7 16.7v249.7c0 9.2-7.5 16.7-16.7 16.7H243.4c-9.2 0-16.7-7.5-16.7-16.7V126c0-9.2 7.5-16.7 16.7-16.7z"/><path fill="#64798a" d="M247.3 345.4V141.9c0-1.5 1.3-2.7 2.9-2.7h129c1.6 0 2.9 1.2 2.9 2.7v203.5c0 1.5-1.3 2.7-2.9 2.7h-129c-1.6 0-2.9-1.2-2.9-2.7z"/><circle cx="314.7" cy="371.2" r="14" fill="#64798a"/><path fill="#64798a" d="M288.3 120.5H341c2.6 0 4.7 2.1 4.7 4.7s-2.1 4.7-4.7 4.7h-52.7c-2.6 0-4.7-2.1-4.7-4.7.1-2.6 2.2-4.7 4.7-4.7z"/><path fill="#3ea69b" d="m286.6 257.8-28.8-28.9v10.5h-61.2v36.8h61.2v10.4z"/><path fill="#44c4a1" d="m286.6 254.2-28.8-28.8v10.4h-61.2v36.8h61.2v10.5z"/><path fill="#e56353" d="M262.4 312.4h27.4v27.4h-27.4z"/><path fill="#fcd462" d="M301 312.4h27.4v27.4H301z"/><path fill="#44c4a1" d="M339.6 312.4H367v27.4h-27.4z"/><path fill="#ebf0f3" d="M301 269.7h27.4v27.4H301z"/><path fill="#e56353" d="M339.6 269.7H367v27.4h-27.4z"/><path fill="#fcd462" d="M301 227.1h27.4v27.4H301z"/><path fill="#27a2db" d="M339.6 227.1H367v27.4h-27.4z"/></svg>