<svg xmlns="http://www.w3.org/2000/svg" viewBox="0 0 110 110"><g data-name="24. App"><circle cx="55" cy="55" r="50" fill="#e7efff"/><circle cx="4" cy="100" r="3" fill="#00c99f"/><circle cx="16" cy="4" r="3" fill="#ff4d69"/><circle cx="92" cy="9" r="3" fill="#00c99f"/><circle cx="106" cy="55" r="3" fill="#ffa100"/><path fill="#a5bced" d="M16,24H84a6,6,0,0,1,6,6V78a0,0,0,0,1,0,0H10a0,0,0,0,1,0,0V30A6,6,0,0,1,16,24Z"/><rect width="72" height="46" x="14" y="28" fill="#fff" rx="2"/><path fill="#e7efff" d="M14,70H86a0,0,0,0,1,0,0v2a2,2,0,0,1-2,2H16a2,2,0,0,1-2-2V70A0,0,0,0,1,14,70Z"/><path fill="#4e6aff" d="M10,78H90a0,0,0,0,1,0,0v4a6,6,0,0,1-6,6H16a6,6,0,0,1-6-6V78A0,0,0,0,1,10,78Z"/><path fill="#323fd4" d="M61,98H39c2.37-4,3-5.41,3-10H58C58,92.44,58.59,94,61,98Z"/><path fill="#4e6aff" d="M69,100a2,2,0,0,1-2,2H37.92a49.2,49.2,0,0,1-6.66-3A2,2,0,0,1,33,98H67A2,2,0,0,1,69,100Z"/><circle cx="50" cy="83" r="2" fill="#fff"/><rect width="34" height="22" x="18" y="32" fill="#a5bced" rx="2"/><path fill="#4e6aff" d="M50,31H20a3,3,0,0,0-3,3V52a3,3,0,0,0,3,3H50a3,3,0,0,0,3-3V34A3,3,0,0,0,50,31Zm1,3.18V51.82L36.89,43ZM35,41.82,20.89,33H49.11ZM33.11,43,19,51.82V34.18ZM35,44.18,49.11,53H20.89Z"/><path fill="#ff4d69" d="M74,33H58a1,1,0,0,1,0-2H74a1,1,0,0,1,0,2Z"/><path fill="#a5bced" d="M82 38H58a1 1 0 010-2H82a1 1 0 010 2zM82 43H58a1 1 0 010-2H82a1 1 0 010 2zM74 48H58a1 1 0 010-2H74a1 1 0 010 2z"/><path fill="#ffa100" d="M35,60H19a1,1,0,0,1,0-2H35a1,1,0,0,1,0,2Z"/><path fill="#a5bced" d="M23,65H19a1,1,0,0,1,0-2h4a1,1,0,0,1,0,2Z"/><rect width="20" height="14" x="62" y="52" fill="#a5bced" rx="2"/><path fill="#4e6aff" d="M80,51H64a3,3,0,0,0-3,3V64a3,3,0,0,0,3,3H80a3,3,0,0,0,3-3V54A3,3,0,0,0,80,51Zm1,3.2v9.6L73.8,59Zm-9,3.6L64.8,53H79.2ZM70.2,59,63,63.8V54.2ZM72,60.2,79.2,65H64.8Z"/><rect width="28" height="44" x="74" y="65" fill="#7f96d1" rx="6"/><path fill="#fff" d="M99,71v32a3,3,0,0,1-3,3H80a3,3,0,0,1-3-3V71a3,3,0,0,1,3-3h2s1.74,1.5,6,1.5S94,68,94,68h2A3,3,0,0,1,99,71Z"/><path fill="#7f96d1" d="M82,68H94a0,0,0,0,1,0,0v1a2,2,0,0,1-2,2H84a2,2,0,0,1-2-2V68A0,0,0,0,1,82,68Z"/><path fill="#a5bced" d="M94,103H82a1,1,0,0,1,0-2H94a1,1,0,0,1,0,2Z"/><rect width="6" height="6" x="80" y="76" fill="#00c99f" rx="2"/><rect width="6" height="6" x="90" y="76" fill="#ffa100" rx="2"/><rect width="6" height="6" x="80" y="85" fill="#ff4d69" rx="2"/><rect width="6" height="6" x="90" y="85" fill="#00c99f" rx="2"/></g></svg>