<svg xmlns="http://www.w3.org/2000/svg" xmlns:xlink="http://www.w3.org/1999/xlink" viewBox="0 0 32 32"><defs><linearGradient id="a"><stop offset="0" stop-color="#16ff6a"/><stop offset="1" stop-color="#0090a5"/></linearGradient><linearGradient id="b" x1="1073.403" x2="1097.116" y1="516.451" y2="544.308" gradientTransform="translate(-1104.915 499.682) scale(1.02524)" gradientUnits="userSpaceOnUse" xlink:href="#a"/></defs><g fill="#fff" transform="translate(9 -1028.362)"><rect width="32" height="32" x="-9" y="1028.362" fill="url(#b)" rx="6.763" ry="6.763"/><path d="M8.406 8A.5.5 0 0 0 8 8.5v6a.5.5 0 0 0 .5.5h6a.5.5 0 0 0 .5-.5v-6a.5.5 0 0 0-.5-.5h-6a.5.5 0 0 0-.094 0zm9 0a.5.5 0 0 0-.406.5v6a.5.5 0 0 0 .5.5h6a.5.5 0 0 0 .5-.5v-6a.5.5 0 0 0-.5-.5h-6a.5.5 0 0 0-.094 0zM9 9h5v5H9V9zm9 0h5v5h-5V9zm-9.594 8a.5.5 0 0 0-.406.5v6a.5.5 0 0 0 .5.5h6a.5.5 0 0 0 .5-.5v-6a.5.5 0 0 0-.5-.5h-6a.5.5 0 0 0-.094 0zm12.063 0c-.391 0-.805.079-1.188.219a3.48 3.48 0 0 0-2.25 3.718 3.49 3.49 0 0 0 3.125 3.032c1.622.16 3.14-.798 3.657-2.344a.5.5 0 1 0-.938-.344c-.371 1.109-1.462 1.834-2.625 1.719-1.163-.115-2.072-1.028-2.219-2.188-.147-1.16.496-2.254 1.594-2.656A2.529 2.529 0 0 1 22.5 19H22a.5.5 0 1 0 0 1h1.5a.5.5 0 0 0 .5-.5V18a.5.5 0 0 0-.5-.5.5.5 0 0 0-.5.5v.063a3.556 3.556 0 0 0-1.406-.875A3.408 3.408 0 0 0 20.469 17zM9 18h5v5H9v-5z" color="#000" font-family="sans-serif" font-weight="400" overflow="visible" transform="translate(-9 1028.362)" style="text-indent:0;text-align:start;line-height:normal;text-transform:none;block-progression:tb"/></g></svg>